<?xml version="1.0" standalone="no"?>
<!DOCTYPE svg PUBLIC "-//W3C//DTD SVG 20010904//EN"
 "http://www.w3.org/TR/2001/REC-SVG-20010904/DTD/svg10.dtd">
<svg version="1.0" xmlns="http://www.w3.org/2000/svg"
 width="1258.000000pt" height="1258.000000pt" viewBox="0 0 1258.000000 1258.000000"
 preserveAspectRatio="xMidYMid meet">
<metadata>
Created by potrace 1.11, written by Peter Selinger 2001-2013
</metadata>
<g transform="translate(0.000000,1258.000000) scale(0.100000,-0.100000)"
fill="#000000" stroke="none">
<path d="M6058 12575 c-2 -2 -37 -6 -79 -9 -42 -4 -85 -8 -95 -10 -11 -2 -41
-7 -68 -10 -88 -12 -290 -59 -389 -89 -26 -8 -49 -15 -50 -15 -26 -3 -321
-113 -355 -132 -9 -5 -60 -30 -112 -54 -52 -25 -126 -63 -165 -85 -38 -23 -78
-44 -87 -47 -10 -4 -18 -10 -18 -15 0 -5 -5 -9 -10 -9 -25 0 -337 -223 -430
-307 -111 -99 -169 -154 -219 -207 -31 -32 -67 -71 -82 -86 -20 -22 -88 -103
-184 -222 -8 -10 -27 -37 -42 -60 -15 -24 -35 -51 -43 -60 -24 -27 -164 -266
-210 -358 -23 -47 -45 -92 -50 -101 -11 -22 -82 -191 -85 -204 -1 -5 -5 -17
-8 -25 -19 -47 -56 -158 -72 -220 -28 -109 -56 -226 -60 -257 -3 -21 -10 -60
-15 -88 -6 -27 -12 -75 -15 -105 -4 -30 -9 -80 -12 -110 -13 -128 -6 -565 11
-665 2 -16 7 -52 11 -80 3 -27 13 -88 21 -135 9 -47 18 -94 20 -105 5 -35 63
-247 86 -315 12 -36 20 -66 19 -68 -1 -1 6 -16 14 -32 8 -16 15 -32 15 -35 0
-3 7 -22 16 -43 9 -20 22 -55 30 -76 21 -58 128 -273 177 -355 23 -39 47 -79
52 -89 9 -14 49 -75 125 -186 118 -173 378 -446 580 -608 297 -238 672 -440
1025 -551 96 -31 228 -67 264 -73 14 -3 40 -9 56 -14 17 -5 57 -14 90 -21 33
-6 65 -12 70 -14 20 -4 80 -16 95 -19 8 -2 33 -6 55 -10 22 -4 47 -10 55 -13
8 -4 28 -8 45 -10 16 -3 34 -8 40 -13 6 -5 9 -48 8 -102 -3 -112 -3 -98 0
-183 1 -38 -1 -76 -6 -82 -5 -7 -6 -13 -1 -13 5 0 9 -88 9 -195 0 -107 -4
-195 -8 -195 -5 0 -5 -5 -1 -11 9 -15 11 -140 2 -145 -3 -2 -3 -17 1 -32 3
-15 5 -52 4 -82 -3 -66 -3 -46 0 -208 1 -72 -2 -132 -7 -132 -5 0 -4 -6 1 -12
5 -7 7 -76 6 -153 -2 -77 -3 -144 -3 -150 0 -5 1 -39 3 -75 1 -36 -1 -75 -5
-88 -5 -16 -4 -21 3 -16 8 5 8 1 0 -14 -6 -12 -8 -23 -4 -25 5 -3 7 -49 6
-104 -3 -117 -3 -102 0 -188 1 -38 -1 -76 -6 -83 -5 -6 -6 -12 -1 -12 5 0 9
-90 9 -200 0 -110 -4 -200 -9 -200 -5 0 -4 -6 1 -12 5 -7 7 -69 6 -138 -2 -69
-3 -129 -3 -135 0 -5 1 -86 3 -180 1 -93 -2 -176 -6 -182 -5 -7 -6 -13 -1 -13
5 0 8 -57 6 -127 -1 -71 -2 -132 -2 -138 4 -214 3 -345 -3 -345 -5 0 -5 -5 -1
-11 9 -15 11 -140 2 -145 -3 -2 -3 -17 1 -32 3 -15 5 -52 4 -82 -3 -66 -3 -46
0 -208 1 -72 -2 -132 -7 -132 -5 0 -4 -6 1 -12 5 -7 7 -76 6 -153 -2 -77 -3
-146 -3 -152 0 -23 0 -163 0 -175 0 -7 1 -50 2 -96 2 -45 -1 -82 -5 -82 -5 0
-5 -5 -1 -11 9 -15 11 -140 2 -145 -3 -2 -3 -17 1 -32 3 -15 5 -52 4 -82 -4
-68 -4 -57 -1 -163 2 -49 0 -91 -4 -93 -4 -3 -3 -16 2 -29 5 -13 6 -26 2 -29
-14 -9 1 -127 23 -179 30 -73 129 -151 183 -145 63 7 159 85 196 158 17 33 17
187 17 3022 0 1919 4 2990 10 2994 5 3 22 7 37 9 15 2 65 10 112 19 47 9 99
18 115 21 17 2 41 7 55 10 14 3 36 7 50 9 14 2 63 14 110 25 47 12 94 23 105
25 11 3 58 17 105 31 47 15 90 27 95 29 6 1 15 4 20 7 6 4 28 12 50 19 71 22
287 116 396 173 138 72 359 208 434 269 6 5 28 22 50 39 153 115 351 298 455
419 12 14 31 36 44 50 130 148 328 442 406 605 8 17 25 47 37 68 13 20 21 37
19 37 -3 0 8 27 25 59 16 33 29 62 29 65 0 4 13 36 26 66 7 18 15 46 14 54 -1
5 2 12 7 15 6 4 48 121 58 161 1 3 7 25 14 50 7 25 15 53 17 62 2 10 6 28 10
41 3 12 7 31 9 42 26 114 33 155 27 155 -2 0 1 6 7 13 6 8 9 16 6 19 -3 3 -1
27 4 54 19 98 25 214 25 439 0 239 -9 402 -30 500 -4 16 -8 43 -9 60 -4 35
-46 236 -68 320 -1 6 -6 16 -10 23 -5 6 -6 12 -3 12 3 0 -1 18 -9 40 -8 22
-14 42 -15 45 0 3 0 6 -1 8 0 1 -2 9 -4 17 -11 45 -95 264 -115 302 -6 10 -10
24 -10 32 0 7 -7 19 -15 26 -9 7 -14 15 -11 17 14 14 -232 440 -306 528 -5 5
-28 35 -51 65 -133 175 -366 412 -525 535 -7 6 -21 17 -30 26 -24 22 -204 148
-282 197 -114 71 -261 148 -430 225 -93 42 -390 149 -450 161 -14 3 -50 12
-80 21 -30 8 -71 18 -90 21 -19 3 -51 9 -70 14 -19 4 -42 8 -50 8 -8 0 -24 2
-35 5 -18 4 -54 9 -185 24 -42 5 -538 12 -542 8z m-710 -1934 c108 -33 238
-158 270 -261 25 -79 28 -97 27 -150 -3 -72 -20 -133 -56 -195 -28 -49 -92
-125 -104 -125 -4 0 -18 -9 -32 -20 -33 -26 -126 -60 -180 -65 -41 -5 -43 -4
-43 23 -1 15 -3 198 -6 407 -2 209 -6 386 -9 393 -5 15 76 11 133 -7z"/>
</g>
</svg>
