<svg xmlns="http://www.w3.org/2000/svg" viewBox="0 0 320 628.73" width="17">
	<defs><style>.cls-1{fill:#ff9800;}</style></defs>
	<path class="cls-1" d="M988.81,74.19c77.26,19.52,127.08,85.45,123.83,165.55-3,73.64-61,136.47-137,148.33-3.62.57-7.21,1.34-12.29,2.3,0,4.84,0,9.61,0,14.39q0,136.48,0,273c0,4.5,1,9.66-.85,13.31s-6.54,7.61-10.28,7.94c-2.86.25-7.48-4.41-9-7.9-1.66-3.85-.82-8.85-0.82-13.35q0-135.86,0-271.72V390.91c-12.53-2.81-24.62-4.69-36.18-8.25-72.25-22.24-117.88-89.12-113-165,4.63-72.28,61.28-132.78,134.53-145.54C942.5,69.5,968.75,69.13,988.81,74.19Zm102.52,157.28c1-76.42-60.08-139-136.72-139.91S815.75,151,814.35,227.92s59.82,139.54,137.32,140.72C1027.55,369.8,1090.29,308.17,1091.33,231.47Z" transform="translate(-792.79 -70.23)"/><path class="cls-1" d="M1091.33,231.47c-1,76.7-63.78,138.33-139.65,137.17-77.5-1.18-138.72-63.92-137.32-140.72S877.85,90.61,954.61,91.57,1092.36,155.06,1091.33,231.47Zm-192-1.63c23.59,0.07,43.18-19.6,42.82-43-0.35-23-19.75-42.14-42.62-42.16A42.59,42.59,0,0,0,899.33,229.84Z" transform="translate(-792.79 -70.23)"/><path class="cls-1" d="M899.33,229.84a42.59,42.59,0,0,1,.2-85.18c22.87,0,42.27,19.21,42.62,42.16C942.51,210.24,922.92,229.92,899.33,229.84Zm0.42-21.67A21.16,21.16,0,0,0,920.64,187c-0.17-11.18-10.31-21.06-21.45-20.88a21.1,21.1,0,0,0-20.58,21.43A20.47,20.47,0,0,0,899.75,208.18Z" transform="translate(-792.79 -70.23)"/>
</svg>