<svg xmlns="http://www.w3.org/2000/svg" id="Layer_1" data-name="Layer 1" viewBox="0 0 528.58 72.17"><defs><style>.cls-1{fill:#231f20}.cls-2{fill:none;stroke:#231f20;stroke-miterlimit:10}</style></defs><title>find_my_place</title><path d="M66.86,416.9c0,6.68,2.39,7.18,5.1,7.18V425H55.58v-0.94c2.65,0,3.47-2.77,3.47-7.06V388.36c0-3.91-.69-6.74-3.47-6.74v-0.94H66.86V416.9Zm4.47-36.23H88.79v11.66H87.84c-1.32-9.32-11-10.52-16.51-10.71v-0.94Zm0,22.56V402c3-.19,8-1.07,8.63-6.3h0.94v13.86H80C79.34,404.36,74.29,403.41,71.33,403.23Z" class="cls-1" transform="translate(-37.4 -365.78)"/><path d="M110.46,380.67v0.94c-2.71,0-4.91,1.39-4.91,5.29v30.93c0,4.28,2.27,6.24,4.91,6.24V425H92.88v-0.94c2.71,0,4.91-2,4.91-6.24V386.91c0-3.91-2.14-5.29-4.91-5.29v-0.94h17.58Z" class="cls-1" transform="translate(-37.4 -365.78)"/><path d="M127,380.67l27.22,34.4v10h-2.65l-30.62-38.81c-4-5-5.86-4.47-7.5-4.6v-0.94H127Zm5.86,43.41V425H114.11v-0.94c9.32,0,9.32-12.1,9.32-14.93h0.95C124.38,411.92,124.32,424.08,132.82,424.08Zm12-43.41h18.59v0.94c-9.32-.06-9.2,12-9.2,14.93h-0.95c0-3,.06-15-8.44-14.93v-0.94Z" class="cls-1" transform="translate(-37.4 -365.78)"/><path d="M179.5,380.67V425H167.22v-0.94c2.65,0,4.47-2.9,4.47-7.12V388.73c0-3.84-1.76-7.12-4.47-7.12v-0.94H179.5ZM208,403c0,17.89-12.1,21.74-24.07,22.05v-0.94c6.43-.25,14.74-2.46,14.74-21.11,0-18.4-8.32-21-14.74-21.3v-0.94C195.88,381,208,385.33,208,403Z" class="cls-1" transform="translate(-37.4 -365.78)"/><path d="M246.41,424.08V425H227.95v-0.94c8.57,0,9.14-11.34,9.14-14.87H238C238,412.87,238.53,424.08,246.41,424.08Zm-2.14-43.41,16.26,34.84-3.91,10.08h-0.95l-18.59-39.75a7.71,7.71,0,0,0-7.06-4.22v-0.94h14.24Zm41.33,43.41V425H268v-0.94c2.65,0,4.54-1.83,4.54-6.55V380.67h12.6v0.94c-2.71,0-4.85,1.51-4.85,5.54v30.37C280.3,422.25,282.89,424.08,285.6,424.08Z" class="cls-1" transform="translate(-37.4 -365.78)"/><path d="M318.8,424.08V425H301.15v-0.94c2.65,0,5-1.7,5-6.43v-10.4c-9.26-16.38-12.1-20.73-12.1-20.73-2.77-4.85-4.85-4.91-6.62-5v-0.88h18.08v0.88c-1.51,0-5.73-.06-1.45,7.18l9.58,15.88v13C313.69,422.38,316.15,424.08,318.8,424.08Zm-4.22-43.41h17.58v0.94c-2.21,0-6.87,0-13.92,13.8l-0.63-.82c1.07-2.21,5.8-13-3-13v-0.94Z" class="cls-1" transform="translate(-37.4 -365.78)"/><path d="M362.89,416.39c0,7.37,3.47,7.69,6.8,7.69V425H351v-0.94c2.83,0,4.16-2.46,4.16-7.62V388.17c0-4.1-1.32-6.55-4.29-6.55v-0.94h12v35.72Zm4.41-34.78v-0.88c11,0.25,18.4,2.65,18.4,12.66s-7.43,12.35-18.4,12.66v-0.95c5.61-.25,9.83-1.76,9.83-11.72S372.85,381.87,367.3,381.62Z" class="cls-1" transform="translate(-37.4 -365.78)"/><path d="M402.71,425H391v-0.94c2.71,0,4-2.58,4-6.87V387.1c0-3.84-1.76-5.48-4.47-5.48v-0.94h17.45v0.94c-2.71,0-5.23,1.07-5.23,5.61V425Zm21.86,0H407.12v-1c5.86-.32,15.25-2.08,16.51-12.66h0.95V425Z" class="cls-1" transform="translate(-37.4 -365.78)"/><path d="M471.51,424.08V425H455.31v-0.94c4.16,0,2.21-5.17,1.45-6.93l-2-5H439.12c-0.88,2.52-4.16,12.35,5.17,12V425H429.55v-0.94c1.89-.06,3.46,0,8.63-12.92h16.25l-8.38-20.92,3.59-9.58h0.88c11.59,27.78,15.75,38.56,15.75,38.56C468.42,424.27,469.81,424,471.51,424.08Z" class="cls-1" transform="translate(-37.4 -365.78)"/><path d="M492.17,380.23v0.94c-5.86.82-10,5.54-10,21.67s4.22,20.85,10,21.67v0.94c-12-.94-19.66-10.14-19.66-22.62S480.14,381.17,492.17,380.23Zm4.41,0.94v-1c5.42,0.13,10,.94,13.48,3.78l-0.76,9.83h-0.94C506,385.65,502,381.8,496.58,381.17Zm11.78,30.68h0.94l0.76,9.83c-4.09,2.71-8,3.65-13.48,3.84v-1C502.44,423.7,507.23,418.91,508.36,411.86Z" class="cls-1" transform="translate(-37.4 -365.78)"/><path d="M526,425H514.72v-0.94c2.65,0,3.47-2.77,3.47-7.06V388.36c0-3.91-.69-6.74-3.47-6.74v-0.94H526V425Zm4.47-43.35v-1h16.95v11.66h-0.95C545.66,383.32,536,381.93,530.47,381.68Zm0,21.55V402c3-.19,7.56-1.13,8.19-6.36h0.95v13.86h-0.95C538,404.3,533.44,403.41,530.47,403.23ZM548.24,425H530.47v-1c5.61-.32,15.25-1.89,16.82-12.41h0.95V425Z" class="cls-1" transform="translate(-37.4 -365.78)"/><polyline points=".5 17.17 .5 .5 18.83 .5" class="cls-2"/><polyline points="528.08 55 528.08 71.67 509.75 71.67" class="cls-2"/></svg>